  <svg 
    width="128" 
    height="128" 
    viewBox="0 0 128 128" 
    fill="none" 
    xmlns="http://www.w3.org/2000/svg">
    
    <circle 
      cx="64" 
      cy="64" 
      r="62" 
      fill="#6200EA" 
      stroke="#03DAC5" 
      strokeWidth="4" 
    />
    
    <path 
      d="M40 48C40 40.268 46.268 34 54 34C61.732 34 68 40.268 68 48C68 55.732 61.732 62 54 62C46.268 62 40 55.732 40 48Z" 
      fill="#FFFFFF" 
    />
    
    <path 
      d="M88 48C88 40.268 81.732 34 74 34C66.268 34 60 40.268 60 48C60 55.732 66.268 62 74 62C81.732 62 88 55.732 88 48Z" 
      fill="#FFFFFF" 
    />
    
    <path 
      d="M40 80C46 100 82 100 88 80" 
      stroke="#03DAC5" 
      strokeWidth="4" 
      strokeLinecap="round" 
    />
    
    <path 
      d="M54 86H74C81 86 86 91 86 98V110L70 98H54C47 98 42 93 42 86C42 79 47 74 54 74H74C81 74 86 79 86 86" 
      fill="#FFFFFF" 
    />
  </svg>

